<svg width="50" height="45" viewBox="0 0 50 45" fill="none" xmlns="http://www.w3.org/2000/svg">
<path d="M49.2948 20L39.2948 2.50003C38.8543 1.73701 38.22 1.10394 37.4561 0.664929C36.6922 0.225914 35.8259 -0.00345842 34.9448 3.94143e-05H14.9448C14.0765 0.00964417 13.2257 0.245225 12.4761 0.683587C11.7265 1.12195 11.104 1.74798 10.6699 2.50003L0.669872 20C0.231031 20.7601 0 21.6223 0 22.5C0 23.3777 0.231031 24.2399 0.669872 25L10.6699 42.5C11.104 43.252 11.7265 43.878 12.4761 44.3164C13.2257 44.7548 14.0765 44.9904 14.9448 45H34.9448C35.8259 45.0035 36.6922 44.7741 37.4561 44.3351C38.22 43.896 38.8543 43.263 39.2948 42.5L49.2948 25C49.7336 24.2399 49.9647 23.3777 49.9647 22.5C49.9647 21.6223 49.7336 20.7601 49.2948 20ZM34.9648 40H14.9648L4.96486 22.5L14.9648 5.00003H34.9648L44.9648 22.5L34.9648 40Z" fill="#323467"/>
<path d="M24.9643 27.5C27.7258 27.5 29.9643 25.2614 29.9643 22.5C29.9643 19.7386 27.7258 17.5 24.9643 17.5C22.2029 17.5 19.9644 19.7386 19.9644 22.5C19.9644 25.2614 22.2029 27.5 24.9643 27.5Z" fill="#323467"/>
</svg>
