<svg width="28" height="28" viewBox="0 0 28 28" fill="none" xmlns="http://www.w3.org/2000/svg">
<path d="M14 23.3334V11.6667" stroke="white" stroke-width="2" stroke-linecap="round" stroke-linejoin="round"/>
<path d="M21 23.3334V4.66675" stroke="white" stroke-width="2" stroke-linecap="round" stroke-linejoin="round"/>
<path d="M7 23.3334V18.6667" stroke="white" stroke-width="2" stroke-linecap="round" stroke-linejoin="round"/>
<path d="M0.832843 13.825C0.609723 13.9877 0.560744 14.3005 0.723446 14.5236C0.886148 14.7467 1.19892 14.7957 1.42204 14.633L0.832843 13.825ZM18.2077 2.21144C18.2504 1.93862 18.0639 1.68283 17.7911 1.6401L13.3453 0.943905C13.0725 0.901183 12.8167 1.08771 12.7739 1.36053C12.7312 1.63335 12.9177 1.88914 13.1906 1.93186L17.1424 2.55071L16.5236 6.50255C16.4808 6.77537 16.6674 7.03116 16.9402 7.07388C17.213 7.1166 17.4688 6.93008 17.5115 6.65726L18.2077 2.21144ZM1.42204 14.633L9.71519 8.58554L9.12599 7.77755L0.832843 13.825L1.42204 14.633ZM9.71519 8.58554L18.0083 2.53808L17.4191 1.73009L9.12599 7.77755L9.71519 8.58554Z" fill="white"/>
</svg>
