<svg width="43" height="51" viewBox="0 0 43 51" fill="none" xmlns="http://www.w3.org/2000/svg">
<g clip-path="url(#clip0_484_238)">
<path fill-rule="evenodd" clip-rule="evenodd" d="M11.3718 34.7246C11.3718 34.7246 11.9753 10.7533 37.3627 11.3973L42.018 0.000732422C42.018 0.000732422 13.3891 0.664439 11.3718 34.7253" fill="#1D9DCA"/>
<path fill-rule="evenodd" clip-rule="evenodd" d="M13.075 41.2701C13.075 41.2701 17.9694 27.1446 30.668 29.0623L32.6547 23.8304C32.6547 23.8304 17.12 21.9115 13.075 41.2686" fill="#1D9DCA"/>
<path fill-rule="evenodd" clip-rule="evenodd" d="M12.5071 36.9628C12.5071 36.9628 16.4227 19.3376 33.5054 21.7981L36.6271 13.6618C36.6271 13.6618 15.6476 12.434 12.5071 36.9644" fill="#1D9DCA"/>
<path d="M8.68282 21.9932H9.3976V21.5586H8.68282V21.9932ZM0.621826 21.9233H6.8904V21.6289H0.621826V21.9233Z" fill="#161616" stroke="white" stroke-miterlimit="10"/>
<path d="M0.622314 24.614V24.9084H4.09513C4.45166 24.9077 4.80478 24.9795 5.13395 25.1198C5.46313 25.26 5.7618 25.4659 6.01261 25.7254C6.26341 25.985 6.46134 26.293 6.59489 26.6316C6.72844 26.9701 6.79495 27.3325 6.79055 27.6976C6.79055 29.4639 5.71253 30.3749 4.1453 30.3749H0.622314V30.6692H4.16981C5.9 30.6692 7.04063 29.6181 7.04063 27.7258C7.06466 27.1133 6.89617 26.5091 6.55995 26.0019C6.22373 25.4948 5.7375 25.1115 5.17277 24.9084H6.89013V24.614H0.622314Z" fill="#161616" stroke="white" stroke-miterlimit="10"/>
<path d="M0.471436 36.3995C0.471436 38.3898 1.61207 39.7775 3.21702 39.7775H3.24192C4.78388 39.7775 5.82456 38.3616 5.82456 36.4976C5.83492 35.6398 5.6678 34.7894 5.33421 34.0024L9.14386 34.2546V39.2027H9.39469V33.9742L5.06979 33.6798L4.98191 33.8621C5.37424 34.6722 5.57601 35.5652 5.57108 36.4694C5.57108 38.1515 4.63074 39.4692 3.22683 39.4692H3.2042C1.75012 39.4692 0.721892 38.2075 0.721892 36.4134C0.72894 35.8268 0.851347 35.2477 1.0818 34.7107C1.31226 34.1736 1.64603 33.6897 2.06319 33.2877L1.87459 33.0493C1.43651 33.4853 1.08699 34.0058 0.846171 34.5808C0.605352 35.1558 0.477995 35.7739 0.471436 36.3995Z" fill="#1D9DCA" stroke="#1D9DCA" stroke-miterlimit="10"/>
<path d="M5.77786 50.5169C7.08719 50.5173 8.35486 50.0456 9.35856 49.1845V46.0352H5.67263V46.3056H9.06737V49.0844C8.13307 49.8407 6.97999 50.2577 5.78918 50.27C3.10357 50.27 1.52388 48.3064 1.52388 46.0591V46.0344C1.52806 45.4704 1.64193 44.9129 1.85886 44.3945C2.07578 43.8761 2.3914 43.4072 2.78728 43.0152C3.18316 42.6231 3.65136 42.3158 4.16451 42.1112C4.67767 41.9066 5.22549 41.8088 5.77598 41.8235C6.87742 41.8042 7.94999 42.1848 8.80371 42.8978L8.98816 42.6877C8.08993 41.931 6.95347 41.5351 5.79107 41.5739C5.20245 41.5497 4.61513 41.6475 4.06424 41.8612C3.51335 42.0749 3.01023 42.4003 2.58497 42.8178C2.15971 43.2353 1.82106 43.7364 1.58929 44.2911C1.35752 44.8458 1.23739 45.4426 1.23608 46.046V46.0707C1.23608 48.479 2.8946 50.5169 5.77786 50.5169Z" fill="#1D9DCA" stroke="#1D9DCA" stroke-miterlimit="10"/>
<path d="M14.5844 50.5173C15.1011 50.5201 15.6115 50.4 16.0752 50.1665C16.539 49.9329 16.9434 49.5923 17.2568 49.1714L17.0331 49.023C16.7437 49.4039 16.3748 49.7136 15.9534 49.9295C15.5319 50.1453 15.0687 50.2618 14.5976 50.2705C14.212 50.2875 13.8271 50.225 13.4657 50.0866C13.1042 49.9482 12.7736 49.7367 12.4936 49.4647C12.2136 49.1928 11.9898 48.8659 11.8357 48.5036C11.6815 48.1413 11.6001 47.7509 11.5963 47.3557H17.4805V47.3062C17.4805 45.7609 16.5326 44.0453 14.4527 44.0453C14.0363 44.0318 13.6215 44.1054 13.2338 44.2617C12.8461 44.418 12.4936 44.6536 12.1979 44.9542C11.9021 45.2549 11.6694 45.6141 11.5139 46.01C11.3583 46.4059 11.2833 46.8302 11.2934 47.2568V47.2815C11.2934 49.2699 12.781 50.5173 14.5844 50.5173ZM11.5963 47.1216C11.5974 46.7434 11.6724 46.3692 11.8168 46.0211C11.9611 45.673 12.172 45.3579 12.4369 45.0944C12.7018 44.8309 13.0155 44.6243 13.3594 44.4868C13.7034 44.3492 14.0708 44.2834 14.4399 44.2933C16.1776 44.2933 17.1255 45.7138 17.1783 47.1216H11.5963Z" fill="#161616" stroke="white" stroke-miterlimit="10"/>
<path d="M19.429 50.3688H19.7054V46.9475C19.7047 46.5962 19.7722 46.2483 19.9039 45.9239C20.0357 45.5996 20.2291 45.3053 20.4729 45.0582C20.7167 44.8111 21.006 44.6161 21.324 44.4846C21.6421 44.353 21.9825 44.2875 22.3254 44.2919C23.9851 44.2919 24.8398 45.3539 24.8398 46.8981V50.3688H25.1163V46.8733C25.1163 45.1689 24.1288 44.0447 22.3518 44.0447C21.7765 44.0211 21.209 44.1871 20.7328 44.5184C20.2565 44.8497 19.8965 45.3287 19.7058 45.8851V44.193H19.4293L19.429 50.3688Z" fill="#161616" stroke="white" stroke-miterlimit="10"/>
<path d="M27.4451 42.4273H27.8532V41.7234H27.4451V42.4273ZM27.5107 50.3689H27.7872V44.1935H27.5107V50.3689Z" fill="#161616" stroke="white" stroke-miterlimit="10"/>
<path d="M32.9488 50.5173C33.5241 50.541 34.0916 50.375 34.5679 50.0437C35.0442 49.7124 35.4041 49.2333 35.5948 48.6769V50.369H35.8713V44.1936H35.5948V47.6149C35.5955 47.9661 35.528 48.314 35.3963 48.6384C35.2646 48.9627 35.0712 49.2569 34.8275 49.504C34.5837 49.7511 34.2944 49.9462 33.9765 50.0777C33.6585 50.2093 33.3181 50.2748 32.9752 50.2705C31.3155 50.2705 30.4608 49.2085 30.4608 47.6643V44.1936H30.1843V47.689C30.1843 49.3935 31.1714 50.5173 32.9488 50.5173Z" fill="#161616" stroke="white" stroke-miterlimit="10"/>
<path d="M40.3339 50.4802C41.7032 50.4802 42.7167 49.8134 42.7167 48.8499V48.8252C42.7167 47.7632 41.6503 47.417 40.3471 47.0836C39.202 46.7873 38.2541 46.4782 38.2541 45.6631V45.6384C38.2541 44.9098 39.0571 44.3291 40.2532 44.3291C41.0112 44.3417 41.7503 44.5728 42.3859 44.9959L42.5439 44.7738C41.857 44.3318 41.0644 44.0925 40.2532 44.0823C38.8708 44.0823 37.9625 44.7865 37.9625 45.6511V45.6759C37.9625 46.6517 38.9236 46.9727 40.2664 47.3309C41.3327 47.6148 42.4255 47.8864 42.4255 48.8375V48.8622C42.4255 49.665 41.5304 50.2333 40.3453 50.2333C39.4412 50.2235 38.5643 49.9161 37.8441 49.3564L37.6729 49.5661C38.4425 50.1528 39.3746 50.4729 40.3339 50.4802Z" fill="#161616" stroke="white" stroke-miterlimit="10"/>
</g>
<defs>
<clipPath id="clip0_484_238">
<rect width="43" height="51" fill="white"/>
</clipPath>
</defs>
</svg>
