<svg width="60" height="56" viewBox="0 0 60 56" fill="none" xmlns="http://www.w3.org/2000/svg">
<path d="M37.5492 51.3834C39.7322 51.3834 41.5018 49.6138 41.5018 47.4308C41.5018 45.2479 39.7322 43.4783 37.5492 43.4783C35.3663 43.4783 33.5967 45.2479 33.5967 47.4308C33.5967 49.6138 35.3663 51.3834 37.5492 51.3834Z" fill="#323467"/>
<path d="M37.5492 11.8575C39.7322 11.8575 41.5018 10.0879 41.5018 7.90496C41.5018 5.72202 39.7322 3.95239 37.5492 3.95239C35.3663 3.95239 33.5967 5.72202 33.5967 7.90496C33.5967 10.0879 35.3663 11.8575 37.5492 11.8575Z" fill="#323467"/>
<path d="M3.95257 31.621C6.13551 31.621 7.90514 29.8513 7.90514 27.6684C7.90514 25.4854 6.13551 23.7158 3.95257 23.7158C1.76963 23.7158 0 25.4854 0 27.6684C0 29.8513 1.76963 31.621 3.95257 31.621Z" fill="#323467"/>
<path d="M51.3832 19.7628C49.6354 19.768 47.9387 20.3529 46.559 21.4258C45.1792 22.4987 44.1944 23.9991 43.7587 25.6917H35.2923C35.0124 24.5772 34.4909 23.5378 33.7646 22.6473C33.0384 21.7568 32.1252 21.0368 31.0898 20.5384C30.0544 20.04 28.922 19.7754 27.773 19.7633C26.6239 19.7512 25.4862 19.9919 24.4405 20.4684L18.1619 12.6225C19.1947 11.2662 19.7567 9.60992 19.7627 7.90514C19.7627 6.34165 19.299 4.81328 18.4304 3.51328C17.5618 2.21329 16.3272 1.20007 14.8827 0.601746C13.4382 0.00342515 11.8488 -0.153123 10.3153 0.151899C8.78187 0.45692 7.37331 1.20981 6.26776 2.31536C5.1622 3.42092 4.40931 4.82948 4.10429 6.36293C3.79927 7.89637 3.95582 9.48583 4.55414 10.9303C5.15246 12.3748 6.16568 13.6094 7.46567 14.478C8.76567 15.3467 10.294 15.8103 11.8575 15.8103C12.9719 15.8077 14.0729 15.5672 15.0868 15.1047L21.3635 22.9506C20.3259 24.3043 19.7636 25.9624 19.7636 27.668C19.7636 29.3736 20.3259 31.0316 21.3635 32.3854L15.0868 40.2312C14.0729 39.7688 12.9719 39.5283 11.8575 39.5257C10.294 39.5257 8.76567 39.9893 7.46567 40.858C6.16568 41.7266 5.15246 42.9612 4.55414 44.4057C3.95582 45.8501 3.79927 47.4396 4.10429 48.973C4.40931 50.5065 5.1622 51.9151 6.26776 53.0206C7.37331 54.1262 8.78187 54.8791 10.3153 55.1841C11.8488 55.4891 13.4382 55.3326 14.8827 54.7342C16.3272 54.1359 17.5618 53.1227 18.4304 51.8227C19.299 50.5227 19.7627 48.9943 19.7627 47.4308C19.7569 45.726 19.1948 44.0697 18.1619 42.7134L24.4386 34.8676C25.4844 35.3444 26.6222 35.5854 27.7715 35.5735C28.9208 35.5616 30.0534 35.297 31.0891 34.7986C32.1248 34.3002 33.0382 33.5801 33.7645 32.6894C34.4909 31.7986 35.0125 30.7591 35.2923 29.6443H43.7587C44.1309 31.0723 44.896 32.3673 45.9671 33.3823C47.0383 34.3973 48.3726 35.0916 49.8185 35.3864C51.2645 35.6812 52.7641 35.5646 54.1471 35.05C55.5302 34.5353 56.7412 33.6432 57.6426 32.4749C58.5441 31.3065 59.0999 29.9089 59.247 28.4405C59.394 26.9722 59.1264 25.492 58.4745 24.1681C57.8227 22.8443 56.8126 21.7297 55.5591 20.951C54.3056 20.1723 52.8589 19.7607 51.3832 19.7628ZM7.90497 7.90514C7.90497 7.1234 8.13678 6.35921 8.57109 5.70921C9.00541 5.05922 9.62271 4.5526 10.345 4.25344C11.0672 3.95428 11.8619 3.87601 12.6286 4.02852C13.3954 4.18103 14.0996 4.55748 14.6524 5.11025C15.2052 5.66303 15.5816 6.36731 15.7342 7.13403C15.8867 7.90076 15.8084 8.69549 15.5092 9.41773C15.2101 10.14 14.7035 10.7573 14.0535 11.1916C13.4035 11.6259 12.6393 11.8577 11.8575 11.8577C10.8096 11.8567 9.80483 11.4399 9.0638 10.6989C8.32278 9.95785 7.90601 8.95311 7.90497 7.90514ZM11.8575 51.3834C11.0758 51.3834 10.3116 51.1516 9.6616 50.7173C9.01161 50.283 8.505 49.6657 8.20584 48.9434C7.90668 48.2212 7.8284 47.4264 7.98091 46.6597C8.13342 45.893 8.50987 45.1887 9.06265 44.6359C9.61542 44.0832 10.3197 43.7067 11.0864 43.5542C11.8531 43.4017 12.6479 43.48 13.3701 43.7791C14.0924 44.0783 14.7097 44.5849 15.144 45.2349C15.5783 45.8849 15.8101 46.6491 15.8101 47.4308C15.8091 48.4788 15.3923 49.4835 14.6513 50.2246C13.9102 50.9656 12.9055 51.3824 11.8575 51.3834ZM27.6678 31.6206C26.8861 31.6206 26.1219 31.3887 25.4719 30.9544C24.8219 30.5201 24.3153 29.9028 24.0161 29.1806C23.717 28.4583 23.6387 27.6636 23.7912 26.8969C23.9437 26.1302 24.3201 25.4259 24.8729 24.8731C25.4257 24.3203 26.13 23.9439 26.8967 23.7914C27.6634 23.6389 28.4582 23.7171 29.1804 24.0163C29.9026 24.3155 30.5199 24.8221 30.9543 25.4721C31.3886 26.1221 31.6204 26.8862 31.6204 27.668C31.6193 28.716 31.2026 29.7207 30.4615 30.4617C29.7205 31.2027 28.7158 31.6195 27.6678 31.6206ZM51.3832 31.6206C50.6015 31.6206 49.8373 31.3887 49.1873 30.9544C48.5373 30.5201 48.0307 29.9028 47.7315 29.1806C47.4324 28.4583 47.3541 27.6636 47.5066 26.8969C47.6591 26.1302 48.0356 25.4259 48.5883 24.8731C49.1411 24.3203 49.8454 23.9439 50.6121 23.7914C51.3788 23.6389 52.1736 23.7171 52.8958 24.0163C53.618 24.3155 54.2354 24.8221 54.6697 25.4721C55.104 26.1221 55.3358 26.8862 55.3358 27.668C55.3348 28.716 54.918 29.7207 54.177 30.4617C53.4359 31.2027 52.4312 31.6195 51.3832 31.6206Z" fill="#323467"/>
</svg>
