<svg width="24" height="30" viewBox="0 0 24 30" fill="none" xmlns="http://www.w3.org/2000/svg">
<path d="M20 20.625V21.0392L20.2929 21.3321L23 24.0392V24.125H1V24.0392L3.70711 21.3321L4 21.0392V20.625V13.125C4 8.85374 6.22937 5.50684 9.98055 4.61806L10.75 4.43575V3.645V2.625C10.75 1.93228 11.3073 1.375 12 1.375C12.6927 1.375 13.25 1.93228 13.25 2.625V3.645V4.43511L14.0187 4.61788C17.7562 5.50653 20 8.86963 20 13.125V20.625ZM13.7292 27.625C13.3814 28.2211 12.7344 28.625 12 28.625C11.2571 28.625 10.6124 28.2219 10.2674 27.625H13.7292Z" stroke="#FDC210" stroke-width="2"/>
</svg>
